<?xml version="1.0" encoding="UTF-8" standalone="no"?>
<!-- Created with Inkscape (http://www.inkscape.org/) -->

<svg
   xmlns:dc="http://purl.org/dc/elements/1.1/"
   xmlns:cc="http://creativecommons.org/ns#"
   xmlns:rdf="http://www.w3.org/1999/02/22-rdf-syntax-ns#"
   xmlns:svg="http://www.w3.org/2000/svg"
   xmlns="http://www.w3.org/2000/svg"
   xmlns:xlink="http://www.w3.org/1999/xlink"
   xmlns:sodipodi="http://sodipodi.sourceforge.net/DTD/sodipodi-0.dtd"
   xmlns:inkscape="http://www.inkscape.org/namespaces/inkscape"
   width="40"
   height="40"
   viewBox="0 0 40.000025 40.000025"
   version="1.1"
   id="svg4931"
   sodipodi:docname="some.svg"
   inkscape:version="0.92.2 5c3e80d, 2017-08-06">
  <defs
     id="defs4925">
    <symbol
       id="twitter"
       inkscape:label="Twitter" viewBox="0 0 40 40">
      <title
         id="title10346">Share on Twitter</title>
      <path
         sodipodi:nodetypes="csscsccscsccsccsscccccccccc"
         d="m 27.95,15.92 c 0.01,0.17625 0.013,0.3525 0.013,0.53 0,5.4225 -4.1275,11.675 -11.675,11.675 -2.3175,0 -4.4737,-0.67875 -6.29,-1.84375 0.3225,0.04 0.6488,0.0562 0.9788,0.0562 1.9237,0 3.6912,-0.65375 5.095,-1.755 -1.7938,-0.0312 -3.31,-1.21875 -3.8313,-2.84875 0.25,0.0488 0.5063,0.0725 0.7713,0.0725 0.375,0 0.7375,-0.0487 1.08,-0.14375 -1.875,-0.37625 -3.29,-2.03625 -3.29,-4.02375 v -0.0513 c 0.5537,0.3075 1.1862,0.49375 1.8587,0.5125 -1.1012,-0.73375 -1.825,-1.99125 -1.825,-3.415 0,-0.7525 0.2025,-1.455 0.555,-2.0625 2.0225,2.4825 5.0475,4.11625 8.4575,4.28625 -0.07,-0.3 -0.1062,-0.6125 -0.1062,-0.935 0,-2.265 1.8375,-4.10125 4.1037,-4.10125 1.1788,0 2.2463,0.4975 2.995,1.29375 0.9338,-0.1825 1.8125,-0.525 2.6063,-0.99375 -0.3075,0.9575 -0.9575,1.7625 -1.805,2.26875 0.83,-0.0975 1.6212,-0.3175 2.3562,-0.645 -0.5487,0.8225 -1.245,1.545 -2.0475,2.12375 z M -0.002499,-0.0025 v 40 H 39.9975 v -40"
         style="fill:#52ade5;fill-opacity:1;fill-rule:nonzero;stroke:none"
         id="path10274"
         inkscape:connector-curvature="0" />
    </symbol>
    <symbol
       id="facebook"
       inkscape:label="Facebook" viewBox="0 0 40 40">
      <title
         id="title10365">Share on Facebook</title>
      <path
         d="m 24.28,20 h -2.8025 c 0,4.48 0,9.9925 0,9.9925 H 17.325 c 0,0 0,-5.45875 0,-9.9925 H 15.35 v -3.53 h 1.975 v -2.285 c 0,-1.63375 0.7762,-4.1925 4.19,-4.1925 l 3.0762,0.0125 v 3.4275 c 0,0 -1.87,0 -2.2325,0 -0.3637,0 -0.8812,0.1825 -0.8812,0.9625 v 2.075 h 3.1662 z M -0.005,-0.0075 v 40 h 40 v -40 h -40"
         style="fill:#3b5aa5;fill-opacity:1;fill-rule:nonzero;stroke:none"
         id="path10278"
         inkscape:connector-curvature="0" />
    </symbol>
  </defs>
  <sodipodi:namedview
     id="base"
     pagecolor="#ffffff"
     bordercolor="#666666"
     borderopacity="1.0"
     inkscape:pageopacity="0.0"
     inkscape:pageshadow="2"
     inkscape:zoom="1.4142136"
     inkscape:cx="-337.92742"
     inkscape:cy="150.05248"
     inkscape:document-units="mm"
     inkscape:current-layer="layer1"
     showgrid="false"
     showguides="true"
     inkscape:window-width="2560"
     inkscape:window-height="1376"
     inkscape:window-x="0"
     inkscape:window-y="27"
     inkscape:window-maximized="1"
     units="px">
    <inkscape:grid
       type="xygrid"
       id="grid5228" />
  </sodipodi:namedview>
  <metadata
     id="metadata4928">
    <rdf:RDF>
      <cc:Work
         rdf:about="">
        <dc:format>image/svg+xml</dc:format>
        <dc:type
           rdf:resource="http://purl.org/dc/dcmitype/StillImage" />
        <dc:title></dc:title>
      </cc:Work>
    </rdf:RDF>
  </metadata>
  <g
     inkscape:label="Layer 1"
     inkscape:groupmode="layer"
     id="layer1"
     transform="translate(0,-286.41667)">
    <g
       transform="matrix(0.28222223,0,0,0.28222223,-3.3511678,152.91922)"
       id="layer1-9"
       inkscape:label="Layer 1" />
    <use
       xlink:href="#use10136"
       id="use10285"
       transform="translate(1.455209,256.11667)"
       x="0"
       y="0"
       width="100%"
       height="100%" />
    <use
       xlink:href="#use10176"
       id="use10292"
       transform="translate(54.686875,256.38626)"
       x="0"
       y="0"
       width="100%"
       height="100%" />
  </g>
</svg>
